<?xml version="1.0" encoding="UTF-8"?>
<svg version="1.1" xmlns="http://www.w3.org/2000/svg" width="799" height="825">
<path d="M0 0 C5.60250934 3.77262499 10.50638724 8.1477655 15.375 12.8125 C16.05175781 13.42609375 16.72851562 14.0396875 17.42578125 14.671875 C32.47039159 28.78185023 42.46895701 48.30138798 48.375 67.8125 C48.60171387 68.54275391 48.82842773 69.27300781 49.06201172 70.02539062 C54.58905639 88.12537704 56.49892626 106.96180998 57.375 125.8125 C58.08350098 125.92335937 58.79200195 126.03421875 59.52197266 126.1484375 C62.6494654 126.87638378 65.15040049 128.00600512 68.0234375 129.4375 C69.10471924 129.97552246 70.18600098 130.51354492 71.30004883 131.06787109 C72.43853271 131.64359863 73.5770166 132.21932617 74.75 132.8125 C75.91362061 133.39467285 77.07724121 133.9768457 78.27612305 134.57666016 C85.97044037 138.46851898 93.33690082 142.6324717 100.51953125 147.3984375 C103.20977688 148.99874154 103.20977688 148.99874154 105.82421875 148.7890625 C109.23037167 147.48502233 112.26288888 145.68751564 115.375 143.8125 C138.01133738 130.70544944 167.91024338 117.93347496 194.375 116.8125 C195.20902344 116.77253906 196.04304687 116.73257813 196.90234375 116.69140625 C211.3583669 116.33882032 227.46836848 118.61320232 238.375 128.8125 C248.23847668 138.24468397 253.03420482 149.75448808 256.375 162.8125 C256.601875 163.68519531 256.82875 164.55789062 257.0625 165.45703125 C263.53684426 196.16520576 253.82220321 228.59733856 242.80078125 257.0546875 C241.22837328 261.14446536 239.79855301 265.27292682 238.4375 269.4375 C238.21368652 270.08912109 237.98987305 270.74074219 237.75927734 271.41210938 C236.17574108 276.37308198 235.92749439 279.98443821 238.33569336 284.68945312 C239.6190829 286.90442414 240.95937936 289.07695867 242.3125 291.25 C249.22959557 302.72739046 255.13088981 315.08016942 259.375 327.8125 C262.41246227 328.79340467 262.41246227 328.79340467 266.1875 329.5 C288.90847557 334.68220237 312.54227331 345.79546699 330.375 360.8125 C331.04144531 361.3075 331.70789063 361.8025 332.39453125 362.3125 C339.29665061 367.60562857 344.83650048 375.7766863 346.2265625 384.44140625 C347.33419138 402.13432013 338.90426507 418.19887887 327.609375 431.33203125 C326.87203125 432.15058594 326.1346875 432.96914063 325.375 433.8125 C324.76140625 434.49699219 324.1478125 435.18148438 323.515625 435.88671875 C313.53969026 446.39555599 301.02743246 454.64406361 289.30859375 463.0625 C288.66978271 463.52140625 288.03097168 463.9803125 287.37280273 464.453125 C285.375 465.8125 285.375 465.8125 282.71044922 467.11303711 C280.14688822 468.63350675 280.14688822 468.63350675 279.4753418 471.49438477 C279.34297119 472.57002686 279.21060059 473.64566895 279.07421875 474.75390625 C278.90591553 475.96530273 278.7376123 477.17669922 278.56420898 478.42480469 C278.31586304 480.38015137 278.31586304 480.38015137 278.0625 482.375 C276.57066838 492.87945672 274.52282681 502.91935183 271.3125 513.0625 C270.98403076 514.10092041 270.65556152 515.13934082 270.31713867 516.20922852 C268.4846737 521.82289776 266.42763025 527.25677648 264.01391602 532.64746094 C263.26154427 535.19695754 263.38745973 536.36271929 264.375 538.8125 C266.24334291 540.92154967 268.10143855 542.86602661 270.125 544.8125 C270.6509375 545.33328125 271.176875 545.8540625 271.71875 546.390625 C274.06848999 548.69383549 276.40944765 550.83956601 279 552.875 C283.48779463 556.53609562 286.80979786 561.27918606 290.375 565.8125 C291.54869141 567.26269531 291.54869141 567.26269531 292.74609375 568.7421875 C301.27282459 579.58393296 307.47805031 590.79103351 306.375 604.8125 C304.70590494 613.84230428 297.94182036 620.20129473 290.72729492 625.34350586 C267.99084075 640.56648585 236.02998033 642.82105303 209.63012695 639.31518555 C203.11965583 638.3025708 203.11965583 638.3025708 196.98632812 640.06982422 C194.86060802 641.95575899 193.10478359 643.92090349 191.3125 646.125 C189.96547038 647.61596954 188.61255393 649.10164095 187.25390625 650.58203125 C186.6005127 651.30986816 185.94711914 652.03770508 185.27392578 652.78759766 C178.1057824 660.43128256 169.1054898 665.66916781 159.99609375 670.67578125 C155.32707817 673.33777126 151.06735553 676.54145873 146.78759766 679.78100586 C144.99344131 681.13905115 143.18868443 682.48064593 141.375 683.8125 C140.73522217 684.28413574 140.09544434 684.75577148 139.4362793 685.24169922 C132.67950481 689.99335395 125.30637422 693.30015835 117.8125 696.6875 C116.50423324 697.28575019 115.19628796 697.88470393 113.88867188 698.484375 C110.7211057 699.93519722 107.54932067 701.3765054 104.375 702.8125 C104.6829248 703.42585205 104.99084961 704.0392041 105.30810547 704.67114258 C109.30928694 712.70188919 112.05066008 719.49582633 109.6796875 728.43359375 C105.64277638 740.39167079 99.29505038 749.53138881 90.984375 758.84375 C88.34368931 761.71574408 88.34368931 761.71574408 86.375 764.8125 C87.79039062 765.14121094 87.79039062 765.14121094 89.234375 765.4765625 C103.22316886 768.87028272 117.46761779 774.16042802 125.9375 786.5 C129.05053653 792.20578841 129.39386096 797.45104039 128.375 803.8125 C127.37822228 807.04360074 126.1196947 809.91829072 124.375 812.8125 C123.98882435 813.50230949 123.60264869 814.19211898 123.20477074 814.90283179 C121.375 816.8125 121.375 816.8125 118.50812513 817.30929399 C117.32757462 817.3077751 116.14702411 817.30625622 114.93069935 817.30469131 C113.940341 817.31161438 113.940341 817.31161438 112.92997542 817.31867731 C110.70168174 817.32932572 108.47452766 817.31127262 106.24629211 817.29351807 C104.63915284 817.29526124 103.03201467 817.29876149 101.42488259 817.30387473 C96.9963039 817.31284843 92.56810979 817.29677845 88.13958013 817.27676249 C83.36862699 817.25953617 78.59769667 817.26533076 73.82672119 817.26837158 C65.55662687 817.27047201 57.28665848 817.25789053 49.01659584 817.23542023 C37.05940062 817.20295284 25.10226648 817.1924986 13.14503195 817.18746826 C-6.25336286 817.17870734 -25.6516905 817.15207015 -45.05004883 817.11425781 C-63.89705061 817.07755835 -82.74403417 817.04923648 -101.59106445 817.03222656 C-102.75221756 817.03117567 -103.91337067 817.03012477 -105.10971024 817.02904204 C-110.93470194 817.023822 -116.75969377 817.01876714 -122.58468568 817.01379442 C-170.93150355 816.97230757 -219.27824851 816.90183745 -267.625 816.8125 C-267.30851299 814.56480443 -266.99073509 812.3172906 -266.67240906 810.06985474 C-266.49558436 808.81825121 -266.31875967 807.56664768 -266.13657665 806.27711678 C-265.21111089 800.0094652 -263.83466618 793.86646745 -262.4375 787.6875 C-262.28571289 787.01540497 -262.13392578 786.34330994 -261.97753906 785.65084839 C-258.01489986 768.24556326 -252.08214917 752.00359122 -244.625 735.8125 C-244.03383903 734.51953817 -243.4426931 733.22656946 -242.8515625 731.93359375 C-241.45226628 728.88864634 -240.04410975 725.84825125 -238.625 722.8125 C-239.29853516 722.60157715 -239.97207031 722.3906543 -240.66601562 722.17333984 C-290.78868227 706.43099584 -336.46154355 683.82058046 -373.625 645.8125 C-374.285 645.4825 -374.945 645.1525 -375.625 644.8125 C-375.625 644.1525 -375.625 643.4925 -375.625 642.8125 C-376.285 642.8125 -376.945 642.8125 -377.625 642.8125 C-379.0703125 641.37890625 -379.0703125 641.37890625 -380.75 639.375 C-383.24610588 636.43206035 -385.77496787 633.53897557 -388.375 630.6875 C-414.71248543 600.95653087 -434.96856479 565.39424799 -444.625 526.8125 C-444.80498535 526.11930664 -444.9849707 525.42611328 -445.17041016 524.71191406 C-448.32379471 512.33869557 -448.78554085 499.50243886 -449.625 486.8125 C-449.71136719 485.50909668 -449.79773438 484.20569336 -449.88671875 482.86279297 C-449.97659947 481.500979 -450.06644293 480.13916258 -450.15625 478.77734375 C-450.20083847 478.10297775 -450.24542694 477.42861176 -450.29136658 476.73381042 C-450.50916357 473.43148493 -450.7222779 470.129041 -450.92797852 466.82592773 C-451.34121065 459.76010043 -451.34121065 459.76010043 -452.30859375 452.7578125 C-452.625 449.8125 -452.625 449.8125 -451.65258789 447.50976562 C-450.45695397 444.37140412 -450.42657011 442.06168614 -450.5 438.7109375 C-450.51716064 437.51267334 -450.53432129 436.31440918 -450.55200195 435.07983398 C-450.57609131 433.79536377 -450.60018066 432.51089355 -450.625 431.1875 C-451.21888708 371.04434572 -437.1592107 308.0136267 -399.625 259.8125 C-398.94566406 258.93722656 -398.26632812 258.06195313 -397.56640625 257.16015625 C-396.47581806 255.76732653 -395.3810671 254.37774139 -394.28125 252.9921875 C-392.21157959 250.26842315 -390.30059711 247.45237322 -388.375 244.625 C-383.86325489 238.01574031 -378.98925863 231.73339771 -373.97705078 225.49804688 C-372.64168719 223.83330324 -371.3182562 222.15961209 -369.99609375 220.484375 C-369.19300781 219.47890625 -368.38992188 218.4734375 -367.5625 217.4375 C-366.84964844 216.54289063 -366.13679688 215.64828125 -365.40234375 214.7265625 C-364.81582031 214.09492188 -364.22929687 213.46328125 -363.625 212.8125 C-362.965 212.8125 -362.305 212.8125 -361.625 212.8125 C-361.25942993 211.96014771 -361.25942993 211.96014771 -360.88647461 211.09057617 C-359.39197555 208.39168499 -357.61989359 206.54825701 -355.44140625 204.36328125 C-354.60158203 203.51942871 -353.76175781 202.67557617 -352.89648438 201.80615234 C-352.00251953 200.92137207 -351.10855469 200.0365918 -350.1875 199.125 C-349.27677734 198.21959473 -348.36605469 197.31418945 -347.42773438 196.38134766 C-341.40879447 190.44725719 -335.30620535 184.98674578 -328.625 179.8125 C-326.74710881 178.21171883 -324.87228283 176.60733715 -323 175 C-315.55133206 168.78634436 -307.64099284 163.26537337 -299.625 157.8125 C-299.04556641 157.41708008 -298.46613281 157.02166016 -297.86914062 156.61425781 C-253.11311056 126.32239278 -198.6216078 104.38357858 -144.625 98.8125 C-144.37105469 97.96171875 -144.11710937 97.1109375 -143.85546875 96.234375 C-140.29842064 86.34239359 -133.81356926 77.23924982 -127.625 68.8125 C-126.58165891 67.36354929 -125.53872973 65.91430193 -124.49609375 64.46484375 C-117.68162787 55.04680955 -110.64639077 45.96365028 -102.92089844 37.27587891 C-101.7280238 35.92883848 -100.55445137 34.56476998 -99.3828125 33.19921875 C-95.12339142 28.26856595 -90.65488659 23.94764715 -85.625 19.8125 C-85.10550781 19.37534668 -84.58601563 18.93819336 -84.05078125 18.48779297 C-60.33223718 -1.43978156 -29.92280185 -17.89541696 0 0 Z " fill="#8BF18A" transform="translate(452.625,8.1875)"/>
<path d="M0 0 C5.60250934 3.77262499 10.50638724 8.1477655 15.375 12.8125 C16.05175781 13.42609375 16.72851562 14.0396875 17.42578125 14.671875 C32.47039159 28.78185023 42.46895701 48.30138798 48.375 67.8125 C48.60171387 68.54275391 48.82842773 69.27300781 49.06201172 70.02539062 C54.58905639 88.12537704 56.49892626 106.96180998 57.375 125.8125 C58.08350098 125.92335937 58.79200195 126.03421875 59.52197266 126.1484375 C62.6494654 126.87638378 65.15040049 128.00600512 68.0234375 129.4375 C69.10471924 129.97552246 70.18600098 130.51354492 71.30004883 131.06787109 C72.43853271 131.64359863 73.5770166 132.21932617 74.75 132.8125 C75.91362061 133.39467285 77.07724121 133.9768457 78.27612305 134.57666016 C85.97044037 138.46851898 93.33690082 142.6324717 100.51953125 147.3984375 C103.20977688 148.99874154 103.20977688 148.99874154 105.82421875 148.7890625 C109.23037167 147.48502233 112.26288888 145.68751564 115.375 143.8125 C138.01133738 130.70544944 167.91024338 117.93347496 194.375 116.8125 C195.20902344 116.77253906 196.04304687 116.73257813 196.90234375 116.69140625 C211.3583669 116.33882032 227.46836848 118.61320232 238.375 128.8125 C248.23847668 138.24468397 253.03420482 149.75448808 256.375 162.8125 C256.601875 163.68519531 256.82875 164.55789062 257.0625 165.45703125 C263.53684426 196.16520576 253.82220321 228.59733856 242.80078125 257.0546875 C241.22837328 261.14446536 239.79855301 265.27292682 238.4375 269.4375 C238.21368652 270.08912109 237.98987305 270.74074219 237.75927734 271.41210938 C236.17574108 276.37308198 235.92749439 279.98443821 238.33569336 284.68945312 C239.6190829 286.90442414 240.95937936 289.07695867 242.3125 291.25 C249.22959557 302.72739046 255.13088981 315.08016942 259.375 327.8125 C262.41246227 328.79340467 262.41246227 328.79340467 266.1875 329.5 C288.90847557 334.68220237 312.54227331 345.79546699 330.375 360.8125 C331.04144531 361.3075 331.70789063 361.8025 332.39453125 362.3125 C339.29665061 367.60562857 344.83650048 375.7766863 346.2265625 384.44140625 C347.33419138 402.13432013 338.90426507 418.19887887 327.609375 431.33203125 C326.87203125 432.15058594 326.1346875 432.96914063 325.375 433.8125 C324.76140625 434.49699219 324.1478125 435.18148438 323.515625 435.88671875 C313.53969026 446.39555599 301.02743246 454.64406361 289.30859375 463.0625 C288.66978271 463.52140625 288.03097168 463.9803125 287.37280273 464.453125 C285.375 465.8125 285.375 465.8125 282.71044922 467.11303711 C280.14688822 468.63350675 280.14688822 468.63350675 279.4753418 471.49438477 C279.34297119 472.57002686 279.21060059 473.64566895 279.07421875 474.75390625 C278.90591553 475.96530273 278.7376123 477.17669922 278.56420898 478.42480469 C278.31586304 480.38015137 278.31586304 480.38015137 278.0625 482.375 C276.57066838 492.87945672 274.52282681 502.91935183 271.3125 513.0625 C270.98403076 514.10092041 270.65556152 515.13934082 270.31713867 516.20922852 C268.4846737 521.82289776 266.42763025 527.25677648 264.01391602 532.64746094 C263.26154427 535.19695754 263.38745973 536.36271929 264.375 538.8125 C266.24334291 540.92154967 268.10143855 542.86602661 270.125 544.8125 C270.6509375 545.33328125 271.176875 545.8540625 271.71875 546.390625 C274.06848999 548.69383549 276.40944765 550.83956601 279 552.875 C283.48779463 556.53609562 286.80979786 561.27918606 290.375 565.8125 C291.54869141 567.26269531 291.54869141 567.26269531 292.74609375 568.7421875 C301.27282459 579.58393296 307.47805031 590.79103351 306.375 604.8125 C304.70590494 613.84230428 297.94182036 620.20129473 290.72729492 625.34350586 C267.99084075 640.56648585 236.02998033 642.82105303 209.63012695 639.31518555 C203.11965583 638.3025708 203.11965583 638.3025708 196.98632812 640.06982422 C194.86060802 641.95575899 193.10478359 643.92090349 191.3125 646.125 C189.96547038 647.61596954 188.61255393 649.10164095 187.25390625 650.58203125 C186.6005127 651.30986816 185.94711914 652.03770508 185.27392578 652.78759766 C178.1057824 660.43128256 169.1054898 665.66916781 159.99609375 670.67578125 C155.32707817 673.33777126 151.06735553 676.54145873 146.78759766 679.78100586 C144.99344131 681.13905115 143.18868443 682.48064593 141.375 683.8125 C140.73522217 684.28413574 140.09544434 684.75577148 139.4362793 685.24169922 C132.67950481 689.99335395 125.30637422 693.30015835 117.8125 696.6875 C116.50423324 697.28575019 115.19628796 697.88470393 113.88867188 698.484375 C110.7211057 699.93519722 107.54932067 701.3765054 104.375 702.8125 C104.6829248 703.42585205 104.99084961 704.0392041 105.30810547 704.67114258 C109.30928694 712.70188919 112.05066008 719.49582633 109.6796875 728.43359375 C105.64277638 740.39167079 99.29505038 749.53138881 90.984375 758.84375 C88.34368931 761.71574408 88.34368931 761.71574408 86.375 764.8125 C87.79039062 765.14121094 87.79039062 765.14121094 89.234375 765.4765625 C103.22316886 768.87028272 117.46761779 774.16042802 125.9375 786.5 C129.05053653 792.20578841 129.39386096 797.45104039 128.375 803.8125 C127.37822228 807.04360074 126.1196947 809.91829072 124.375 812.8125 C123.98882435 813.50230949 123.60264869 814.19211898 123.20477074 814.90283179 C121.375 816.8125 121.375 816.8125 118.50812513 817.30929399 C117.32757462 817.3077751 116.14702411 817.30625622 114.93069935 817.30469131 C113.940341 817.31161438 113.940341 817.31161438 112.92997542 817.31867731 C110.70168174 817.32932572 108.47452766 817.31127262 106.24629211 817.29351807 C104.63915284 817.29526124 103.03201467 817.29876149 101.42488259 817.30387473 C96.9963039 817.31284843 92.56810979 817.29677845 88.13958013 817.27676249 C83.36862699 817.25953617 78.59769667 817.26533076 73.82672119 817.26837158 C65.55662687 817.27047201 57.28665848 817.25789053 49.01659584 817.23542023 C37.05940062 817.20295284 25.10226648 817.1924986 13.14503195 817.18746826 C-6.25336286 817.17870734 -25.6516905 817.15207015 -45.05004883 817.11425781 C-63.89705061 817.07755835 -82.74403417 817.04923648 -101.59106445 817.03222656 C-102.75221756 817.03117567 -103.91337067 817.03012477 -105.10971024 817.02904204 C-110.93470194 817.023822 -116.75969377 817.01876714 -122.58468568 817.01379442 C-170.93150355 816.97230757 -219.27824851 816.90183745 -267.625 816.8125 C-267.30851299 814.56480443 -266.99073509 812.3172906 -266.67240906 810.06985474 C-266.49558436 808.81825121 -266.31875967 807.56664768 -266.13657665 806.27711678 C-265.21111089 800.0094652 -263.83466618 793.86646745 -262.4375 787.6875 C-262.28571289 787.01540497 -262.13392578 786.34330994 -261.97753906 785.65084839 C-258.01489986 768.24556326 -252.08214917 752.00359122 -244.625 735.8125 C-244.03383903 734.51953817 -243.4426931 733.22656946 -242.8515625 731.93359375 C-241.45226628 728.88864634 -240.04410975 725.84825125 -238.625 722.8125 C-239.29853516 722.60157715 -239.97207031 722.3906543 -240.66601562 722.17333984 C-290.78868227 706.43099584 -336.46154355 683.82058046 -373.625 645.8125 C-374.285 645.4825 -374.945 645.1525 -375.625 644.8125 C-375.625 644.1525 -375.625 643.4925 -375.625 642.8125 C-376.285 642.8125 -376.945 642.8125 -377.625 642.8125 C-379.0703125 641.37890625 -379.0703125 641.37890625 -380.75 639.375 C-383.24610588 636.43206035 -385.77496787 633.53897557 -388.375 630.6875 C-414.71248543 600.95653087 -434.96856479 565.39424799 -444.625 526.8125 C-444.80498535 526.11930664 -444.9849707 525.42611328 -445.17041016 524.71191406 C-448.32379471 512.33869557 -448.78554085 499.50243886 -449.625 486.8125 C-449.71136719 485.50909668 -449.79773438 484.20569336 -449.88671875 482.86279297 C-449.97659947 481.500979 -450.06644293 480.13916258 -450.15625 478.77734375 C-450.20083847 478.10297775 -450.24542694 477.42861176 -450.29136658 476.73381042 C-450.50916357 473.43148493 -450.7222779 470.129041 -450.92797852 466.82592773 C-451.34121065 459.76010043 -451.34121065 459.76010043 -452.30859375 452.7578125 C-452.625 449.8125 -452.625 449.8125 -451.65258789 447.50976562 C-450.45695397 444.37140412 -450.42657011 442.06168614 -450.5 438.7109375 C-450.51716064 437.51267334 -450.53432129 436.31440918 -450.55200195 435.07983398 C-450.57609131 433.79536377 -450.60018066 432.51089355 -450.625 431.1875 C-451.21888708 371.04434572 -437.1592107 308.0136267 -399.625 259.8125 C-398.94566406 258.93722656 -398.26632812 258.06195313 -397.56640625 257.16015625 C-396.47581806 255.76732653 -395.3810671 254.37774139 -394.28125 252.9921875 C-392.21157959 250.26842315 -390.30059711 247.45237322 -388.375 244.625 C-383.86325489 238.01574031 -378.98925863 231.73339771 -373.97705078 225.49804688 C-372.64168719 223.83330324 -371.3182562 222.15961209 -369.99609375 220.484375 C-369.19300781 219.47890625 -368.38992188 218.4734375 -367.5625 217.4375 C-366.84964844 216.54289063 -366.13679688 215.64828125 -365.40234375 214.7265625 C-364.81582031 214.09492188 -364.22929687 213.46328125 -363.625 212.8125 C-362.965 212.8125 -362.305 212.8125 -361.625 212.8125 C-361.25942993 211.96014771 -361.25942993 211.96014771 -360.88647461 211.09057617 C-359.39197555 208.39168499 -357.61989359 206.54825701 -355.44140625 204.36328125 C-354.60158203 203.51942871 -353.76175781 202.67557617 -352.89648438 201.80615234 C-352.00251953 200.92137207 -351.10855469 200.0365918 -350.1875 199.125 C-349.27677734 198.21959473 -348.36605469 197.31418945 -347.42773438 196.38134766 C-341.40879447 190.44725719 -335.30620535 184.98674578 -328.625 179.8125 C-326.74710881 178.21171883 -324.87228283 176.60733715 -323 175 C-315.55133206 168.78634436 -307.64099284 163.26537337 -299.625 157.8125 C-299.04556641 157.41708008 -298.46613281 157.02166016 -297.86914062 156.61425781 C-253.11311056 126.32239278 -198.6216078 104.38357858 -144.625 98.8125 C-144.37105469 97.96171875 -144.11710937 97.1109375 -143.85546875 96.234375 C-140.29842064 86.34239359 -133.81356926 77.23924982 -127.625 68.8125 C-126.58165891 67.36354929 -125.53872973 65.91430193 -124.49609375 64.46484375 C-117.68162787 55.04680955 -110.64639077 45.96365028 -102.92089844 37.27587891 C-101.7280238 35.92883848 -100.55445137 34.56476998 -99.3828125 33.19921875 C-95.12339142 28.26856595 -90.65488659 23.94764715 -85.625 19.8125 C-85.10550781 19.37534668 -84.58601563 18.93819336 -84.05078125 18.48779297 C-60.33223718 -1.43978156 -29.92280185 -17.89541696 0 0 Z M-188.64453125 126.5234375 C-192.00129085 127.64789266 -195.33496929 128.44313123 -198.8125 129.125 C-229.82112523 135.91549641 -259.1441671 152.8266732 -285.625 169.8125 C-286.67429687 170.48023438 -287.72359375 171.14796875 -288.8046875 171.8359375 C-301.37974551 180.00805743 -312.76346953 189.64733885 -324.0625 199.47167969 C-325.59669675 200.78821227 -327.15418448 202.07137273 -328.71875 203.3515625 C-331.5162291 205.72039561 -334.04405578 208.21113172 -336.625 210.8125 C-338.05802514 212.22128924 -339.49112365 213.63000574 -340.92617798 215.03672791 C-343.12922973 217.19925543 -345.32398134 219.37013271 -347.51855469 221.54125977 C-348.6737736 222.68132987 -349.83166176 223.81870153 -350.9921875 224.95336914 C-352.68168187 226.60631195 -354.36115239 228.26890282 -356.0390625 229.93359375 C-356.55473785 230.43378525 -357.07041321 230.93397675 -357.60171509 231.44932556 C-360.796989 234.64310402 -362.74045999 237.7288462 -364.625 241.8125 C-366.5 243.65625 -366.5 243.65625 -368.625 245.3125 C-377.50599606 252.86062227 -384.51116589 262.94946991 -390.625 272.8125 C-390.97836426 273.37614258 -391.33172852 273.93978516 -391.69580078 274.52050781 C-392.91136208 276.46600791 -394.11372508 278.41911673 -395.3125 280.375 C-395.6935791 280.98851318 -396.0746582 281.60202637 -396.46728516 282.23413086 C-398.75786073 286.02565482 -400.45118876 289.76700697 -401.92993164 293.93969727 C-402.90838109 296.57604632 -404.18850645 299.01525141 -405.5 301.5 C-409.99188409 310.35001481 -413.52254974 319.40256061 -415.75390625 329.08203125 C-416.50761283 331.44454649 -417.372182 333.30678908 -418.52734375 335.48046875 C-420.97302732 340.24517147 -422.31697236 345.13600285 -423.625 350.3125 C-423.87991211 351.31369873 -424.13482422 352.31489746 -424.39746094 353.34643555 C-437.08237718 404.68195568 -433.54741372 456.99455207 -424.98748779 508.62414551 C-424.25777729 513.02943938 -423.53978865 517.4366327 -422.82568359 521.84448242 C-422.49981664 523.84820765 -422.16872067 525.85109498 -421.83056641 527.8527832 C-421.05992521 532.52368271 -420.55237192 537.06259308 -420.32421875 541.79296875 C-419.82253117 548.24331174 -417.67180982 553.22504135 -414.75 558.9375 C-414.25749756 559.92959473 -413.76499512 560.92168945 -413.25756836 561.94384766 C-403.34821385 581.57341678 -390.99818141 600.16290311 -376.625 616.8125 C-375.95597656 617.59238281 -375.28695312 618.37226562 -374.59765625 619.17578125 C-364.1279191 631.08827547 -352.99518015 642.1132623 -340.26416016 651.58349609 C-338.68354218 652.76860644 -337.12825951 653.98727839 -335.57421875 655.20703125 C-328.28817513 660.87180954 -320.69961118 665.40564699 -312.625 669.8125 C-311.56023437 670.41707031 -310.49546875 671.02164063 -309.3984375 671.64453125 C-307.93277344 672.47017578 -307.93277344 672.47017578 -306.4375 673.3125 C-305.57769531 673.7971875 -304.71789062 674.281875 -303.83203125 674.78125 C-301.57802347 676.02416217 -301.57802347 676.02416217 -298.625 675.8125 C-298.625 676.4725 -298.625 677.1325 -298.625 677.8125 C-278.23798997 692.63941639 -254.13963344 700.01853323 -230.17773438 706.80541992 C-227.73886745 707.49675624 -225.30278642 708.19797373 -222.86914062 708.9074707 C-217.05903567 710.5972147 -211.33931916 712.22532432 -205.375 713.25 C-204.02317986 713.48681521 -202.67163734 713.72521838 -201.3203125 713.96484375 C-200.58329102 714.09487793 -199.84626953 714.22491211 -199.08691406 714.35888672 C-196.29774638 714.87279723 -193.52078918 715.43565688 -190.7421875 716.00390625 C-189.67258789 716.21926025 -188.60298828 716.43461426 -187.50097656 716.65649414 C-185.44664753 717.0710317 -183.39369235 717.49249144 -181.34277344 717.92358398 C-158.86731422 722.39603506 -136.46457643 723.25937333 -113.63806152 723.07678223 C-110.74824758 723.0574783 -107.8584959 723.0536101 -104.96862602 723.0500679 C-101.4764514 723.04490586 -97.98433204 723.03044367 -94.4921875 723.015625 C-93.21511932 723.01137512 -91.93805115 723.00712524 -90.62228394 723.00274658 C-84.52493532 722.95379909 -78.65648034 722.69650191 -72.625 721.8125 C-71.12519292 721.71538911 -69.62354401 721.64022785 -68.12109375 721.6015625 C-39.58611723 720.68006706 -11.66129222 716.99222182 16.375 711.8125 C17.36673721 711.62986603 17.36673721 711.62986603 18.37850952 711.44354248 C26.80222237 709.87514788 34.99386104 707.93684161 43.1875 705.4375 C45.27043482 704.81247249 47.35377213 704.18878478 49.4375 703.56640625 C50.44554687 703.26492676 51.45359375 702.96344727 52.4921875 702.65283203 C55.06944713 701.90156783 57.65087179 701.19824372 60.25 700.52734375 C85.12013243 694.10568099 107.61956845 681.62075729 129.75390625 668.88671875 C132.16963916 667.49817873 134.59409162 666.12712576 137.02734375 664.76953125 C144.09432487 660.81373966 150.8502338 656.62400212 157.375 651.8125 C158.31859375 651.13574219 159.2621875 650.45898438 160.234375 649.76171875 C167.78585837 644.25461365 174.63048071 638.25726287 181.375 631.8125 C182.179375 631.049375 182.98375 630.28625 183.8125 629.5 C197.77974212 615.92073683 209.0789972 599.42234196 219.39453125 582.96484375 C220.6391935 580.98369496 221.90459444 579.01527325 223.19921875 577.06640625 C227.90326361 569.95219908 231.70641055 562.5138586 235.39746094 554.84130859 C236.33003685 552.90581764 237.27734491 550.97814981 238.2265625 549.05078125 C242.35986184 540.54960515 245.62122179 531.88970536 248.64111328 522.93896484 C249.35197269 520.87922252 250.10247687 518.83959128 250.87109375 516.80078125 C254.00210475 508.42502225 256.49976975 499.98462564 258.6875 491.3125 C258.94208984 490.30952881 259.19667969 489.30655762 259.45898438 488.27319336 C262.26938194 476.78751202 262.62165535 465.66260415 262.85180664 453.85913086 C262.89135213 451.917613 262.94352141 449.97636505 262.99609375 448.03515625 C263.0211499 446.88797119 263.04620605 445.74078613 263.07202148 444.55883789 C263.375 441.8125 263.375 441.8125 265.375 439.8125 C266.55870166 430.94877159 264.5901609 422.01429543 262.86645508 413.34521484 C262.43162642 411.15795493 262.01240367 408.96812315 261.59570312 406.77734375 C260.5610902 400.10976091 260.5610902 400.10976091 258.375 393.8125 C258.12408917 392.08635444 257.90019238 390.35627025 257.6875 388.625 C256.6981869 381.8961605 255.09583606 375.38949308 253.375 368.8125 C252.98308472 367.30780151 252.98308472 367.30780151 252.58325195 365.77270508 C251.39823402 361.31753312 250.09244701 357.09215453 248.375 352.8125 C248.106875 351.69875 247.83875 350.585 247.5625 349.4375 C239.65909641 316.91195445 221.94949278 288.76749336 201.375 262.8125 C200.694375 261.93722656 200.01375 261.06195313 199.3125 260.16015625 C193.33986238 252.63780016 186.74486969 245.74334225 180.12890625 238.7890625 C177.26429352 235.772265 174.47724861 232.70487894 171.75 229.5625 C168.87606362 226.27350935 165.73928822 223.60414341 162.375 220.8125 C160.54128274 218.81915111 158.77947138 216.77401448 157.015625 214.71875 C152.81400886 209.8368722 148.08994522 205.95598275 143.05078125 201.984375 C140.40834411 199.83956471 137.88756318 197.60743959 135.375 195.3125 C131.33582917 191.63306782 127.18074354 188.17021588 122.88671875 184.79296875 C121.16756332 183.4374294 119.46236254 182.06405519 117.76953125 180.67578125 C113.12165388 176.87169402 108.63924624 173.68390704 103.375 170.8125 C102.03381059 169.92847166 100.70119999 169.03136015 99.375 168.125 C78.10446749 153.8616496 55.36002623 142.7163789 31.375 133.8125 C29.71065918 133.19266235 29.71065918 133.19266235 28.01269531 132.56030273 C19.85102688 129.5785049 11.63203358 127.03466451 3.25 124.75 C1.99461426 124.40710938 0.73922852 124.06421875 -0.55419922 123.7109375 C-21.27224806 117.84407525 -21.27224806 117.84407525 -42.625 116.8125 C-42.625 116.1525 -42.625 115.4925 -42.625 114.8125 C-91.19211703 109.97636758 -142.04224694 110.76006356 -188.64453125 126.5234375 Z " fill="#1B1C1B" transform="translate(452.625,8.1875)"/>
<path d="M0 0 C6.84667488 14.98190936 6.84667488 14.98190936 8.8125 22 C11.32022996 30.72253898 15.07424262 38.96382418 18.609375 47.30859375 C20.39607656 51.53101829 22.0900662 55.76540308 23.6875 60.0625 C25.42932659 64.71770203 27.46853079 69.15339908 29.625 73.625 C32.64447598 79.90563895 36 86.88856122 36 94 C-73.23 94 -182.46 94 -295 94 C-294.36092977 83.77487629 -293.8002347 75.35037438 -291.1875 65.75 C-290.91832764 64.71931396 -290.64915527 63.68862793 -290.37182617 62.62670898 C-288.52081402 55.64130877 -286.43982878 48.80228761 -284 42 C-283.68869141 40.93845703 -283.68869141 40.93845703 -283.37109375 39.85546875 C-281.18651562 32.44988628 -277.4832597 25.72947262 -273.96484375 18.89013672 C-272.26376673 15.55771306 -270.63979424 12.18698812 -269.0078125 8.8203125 C-268 7 -268 7 -266 5 C-260.49030627 4.40112025 -255.78997723 5.71681217 -250.48046875 7.13671875 C-245.77502912 8.30383677 -241.02944023 9.15858436 -236.25610352 9.99731445 C-231.19781687 10.90109156 -231.19781687 10.90109156 -229 12 C-226.21915538 12.35585242 -223.44933982 12.66419953 -220.66015625 12.9375 C-219.8234288 13.02249756 -218.98670135 13.10749512 -218.12461853 13.19506836 C-215.43760178 13.46705593 -212.75006873 13.73352786 -210.0625 14 C-208.28577217 14.17933993 -206.509079 14.35902355 -204.73242188 14.5390625 C-198.58540086 15.15996443 -198.58540086 15.15996443 -192.43658447 15.76272583 C-190.75047057 15.92691931 -189.06506892 16.0985336 -187.38031006 16.27609253 C-180.57420576 16.96051163 -173.84565699 17.14612304 -167.0078125 17.1328125 C-165.90001434 17.13376923 -164.79221619 17.13472595 -163.65084839 17.13571167 C-161.3230585 17.13638779 -158.99526666 17.13457346 -156.66748047 17.13037109 C-153.14155759 17.1250251 -149.61576268 17.13033033 -146.08984375 17.13671875 C-143.81249972 17.13605767 -141.53515578 17.13477589 -139.2578125 17.1328125 C-138.22198029 17.13483673 -137.18614807 17.13686096 -136.118927 17.13894653 C-123.71579219 17.72000903 -123.71579219 17.72000903 -112 15 C-109.77821427 14.81035121 -107.55151818 14.67725069 -105.32421875 14.5703125 C-103.93487141 14.498518 -102.54554937 14.42623254 -101.15625 14.35351562 C-100.42664063 14.31653564 -99.69703125 14.27955566 -98.9453125 14.24145508 C-85.90802794 13.56900863 -73.12851822 12.4235689 -60.23339844 10.33496094 C-57.3898352 9.90848862 -54.54170557 9.61730435 -51.68115234 9.33178711 C-41.98646534 8.35679306 -32.60763886 6.29217668 -23.1171875 4.12109375 C-19.0941736 3.20825965 -15.08932185 2.55501679 -11 2 C-9.783125 1.649375 -8.56625 1.29875 -7.3125 0.9375 C-4 0 -4 0 0 0 Z " fill="#8AEF89" transform="translate(499,731)"/>
<path d="M0 0 C0 0.66 0 1.32 0 2 C0.66 2.20625 1.32 2.4125 2 2.625 C12.89373864 7.61796354 22.4661461 18.13463608 26.8984375 29.25390625 C27.66294443 31.49065673 28.35211091 33.72677065 29 36 C29.34804687 37.06347656 29.69609375 38.12695312 30.0546875 39.22265625 C33.60812232 53.4217119 31.40648302 70.04427116 23.9453125 82.66796875 C14.60018806 97.24389552 2.72093593 106.45217898 -14 111 C-30.1638255 114.38931547 -45.25436066 112.95649473 -59.625 104.4453125 C-61.53124019 103.05173539 -63.27691315 101.61234862 -65 100 C-66.2375 98.8553125 -66.2375 98.8553125 -67.5 97.6875 C-68.7375 96.3571875 -68.7375 96.3571875 -70 95 C-70.61746094 94.37609375 -71.23492187 93.7521875 -71.87109375 93.109375 C-83.26173309 81.13736087 -87.5873029 66.67781408 -87.55810547 50.42944336 C-87.08306507 36.70620486 -82.10368076 24.27720211 -73 14 C-72.4225 13.33742188 -71.845 12.67484375 -71.25 11.9921875 C-52.32369411 -8.24844519 -24.48321038 -10.08132192 0 0 Z " fill="#161716" transform="translate(157,385)"/>
<path d="M0 0 C5.2422482 3.69879882 9.95626494 7.91880517 14.5625 12.375 C15.23023438 13.01695313 15.89796875 13.65890625 16.5859375 14.3203125 C23.62589971 21.64762011 28.58064893 30.58681342 33.5625 39.375 C34.16449219 40.43460938 34.76648438 41.49421875 35.38671875 42.5859375 C44.36896118 60.17321532 48.29604841 82.77295645 47.5625 102.375 C42.86101199 101.81779755 38.710221 100.88469855 34.265625 99.265625 C33.07348389 98.84297363 31.88134277 98.42032227 30.65307617 97.98486328 C30.02774994 97.76252014 29.40242371 97.540177 28.75814819 97.31109619 C14.96792347 92.44823317 1.32367235 89.1390426 -13.1484375 86.88964844 C-16.50042099 86.36515458 -19.84362307 85.80032379 -23.1875 85.2265625 C-25.37475916 84.85794307 -27.56225122 84.49070234 -29.75 84.125 C-30.72106689 83.9614502 -31.69213379 83.79790039 -32.69262695 83.62939453 C-44.98799165 81.66121195 -57.27632485 81.22466473 -69.7109375 81.27734375 C-71.64557358 81.27946617 -71.64557358 81.27946617 -73.61929321 81.28163147 C-76.9958705 81.28539205 -80.37240259 81.29516445 -83.7489624 81.30633545 C-87.21544789 81.31669112 -90.6819409 81.32115894 -94.1484375 81.32617188 C-100.91147653 81.33679476 -107.67448608 81.35379013 -114.4375 81.375 C-112.78229852 77.03038469 -110.60307875 73.33434604 -108 69.5 C-107.55897949 68.84652588 -107.11795898 68.19305176 -106.66357422 67.51977539 C-98.63995797 55.71610041 -90.12621924 44.56517759 -80.70117188 33.84570312 C-79.53512003 32.48861342 -78.42291512 31.08574849 -77.31640625 29.6796875 C-75.59483749 27.56799193 -73.89012875 25.87551273 -71.8125 24.125 C-69.56695988 22.21732097 -67.36236494 20.30384034 -65.22265625 18.27734375 C-48.09524281 2.11886884 -22.87335931 -14.42103214 0 0 Z " fill="#2FA344" transform="translate(443.4375,23.625)"/>
<path d="M0 0 C1.5141793 1.16936619 3.01567386 2.35546555 4.5 3.5625 C5.12132812 4.01109375 5.74265625 4.4596875 6.3828125 4.921875 C15.96466886 12.22642918 22.63292612 24.73769878 24.5 36.5625 C25.6459284 53.03756896 23.07222205 69.49767059 12.0546875 82.43359375 C3.21488725 91.71412478 -6.2297458 97.86352548 -18.5 101.5625 C-19.14195312 101.75714844 -19.78390625 101.95179688 -20.4453125 102.15234375 C-35.40739616 105.13907148 -50.0911555 101.03584499 -62.7109375 93.1875 C-72.99423115 86.03390442 -81.28946965 75.35198498 -85.5 63.5625 C-88.1732871 45.76551175 -87.55050077 28.07849092 -76.56640625 13.109375 C-58.14428331 -9.59615271 -25.01527328 -16.87687103 0 0 Z " fill="#161716" transform="translate(518.5,391.4375)"/>
<path d="M0 0 C10.28320527 8.52961232 13.75383453 20.3862317 15.234375 33.26953125 C17.17966 63.97981762 8.82989013 91.26396358 -2.765625 119.26953125 C-6.50434995 117.57296699 -8.3944991 115.65685396 -10.765625 112.26953125 C-10.765625 111.60953125 -10.765625 110.94953125 -10.765625 110.26953125 C-12.250625 109.77453125 -12.250625 109.77453125 -13.765625 109.26953125 C-15.20364682 107.67846695 -16.56887835 106.02092975 -17.890625 104.33203125 C-23.04307309 97.87888372 -28.39069613 91.63381365 -34.2421875 85.80078125 C-36.71674968 83.31855788 -39.05333797 80.75589754 -41.390625 78.14453125 C-56.16446379 61.88647857 -71.34107952 47.28740864 -89.765625 35.26953125 C-92.69414865 33.34933366 -95.60801625 31.40872705 -98.515625 29.45703125 C-99.59009888 28.75441162 -99.59009888 28.75441162 -100.6862793 28.03759766 C-102.4338978 26.85858944 -104.10781424 25.5717963 -105.765625 24.26953125 C-105.765625 23.27953125 -105.765625 22.28953125 -105.765625 21.26953125 C-104.22211102 20.3721394 -102.67565076 19.47968552 -101.12109375 18.6015625 C-99.40795772 17.63277413 -97.70329198 16.64896048 -96.00390625 15.65625 C-88.55836274 11.44302525 -81.16965502 8.44327095 -73.078125 5.7421875 C-70.2893089 4.80987979 -67.55243433 3.80970437 -64.828125 2.703125 C-45.51641282 -5.11943315 -19.02503616 -11.90408336 0 0 Z " fill="#2FA344" transform="translate(677.765625,148.73046875)"/>
<path d="M0 0 C4.8991349 1.29977048 9.37559575 2.92373687 14 5 C14 5.66 14 6.32 14 7 C14.86625 7.20625 15.7325 7.4125 16.625 7.625 C24.24886893 10.73102068 27.42643216 16.80769979 30.80078125 23.97265625 C33.18103748 29.98144641 33.77417165 35.58262565 31.9296875 41.88671875 C27.98347665 50.85688711 21.56582117 57.49283024 13 62 C12.10474609 62.49935059 12.10474609 62.49935059 11.19140625 63.00878906 C6.27930614 65.64100071 1.74572462 66.94476127 -3.75 67.75 C-4.53640869 67.87068848 -5.32281738 67.99137695 -6.13305664 68.11572266 C-19.0746925 69.98779152 -31.21919999 69.94527862 -42.24609375 62.0859375 C-43.98081915 60.88595801 -43.98081915 60.88595801 -46.16015625 60.4765625 C-47.07087891 60.24066406 -47.07087891 60.24066406 -48 60 C-48.33 59.34 -48.66 58.68 -49 58 C-49.99 57.67 -50.98 57.34 -52 57 C-53.60546875 54.8203125 -53.60546875 54.8203125 -55.1875 52.125 C-55.71730469 51.24070312 -56.24710937 50.35640625 -56.79296875 49.4453125 C-58 47 -58 47 -58 44 C-57.18917969 43.96261719 -56.37835938 43.92523438 -55.54296875 43.88671875 C-36.75309289 42.77113823 -23.04710727 35.99400217 -10.22265625 22.0703125 C-5.09902134 15.78636332 -1.74862407 7.89701193 0 0 Z " fill="#FB7472" transform="translate(541,450)"/>
<path d="M0 0 C5.59525091 0.63789505 10.44514853 2.53288387 15.625 4.625 C16.51292236 4.98182861 17.40084473 5.33865723 18.31567383 5.70629883 C25.30707293 8.58143927 31.58784618 11.99364653 38 16 C39.49563908 16.79987489 40.99545919 17.59199741 42.5 18.375 C50.66798413 22.90614448 59.72959317 28.45918634 64 37 C66.08573229 48.304669 59.69574273 58.12708276 53.765625 67.17578125 C50.80807324 71.44791666 47.35669635 74.8328299 43.32421875 78.10546875 C40.92641455 79.9810208 40.92641455 79.9810208 38.75390625 82.34375 C35.19743692 85.7741034 31.30219741 88.500562 27.25 91.3125 C26.47011719 91.86228516 25.69023438 92.41207031 24.88671875 92.97851562 C19.14174107 97 19.14174107 97 18 97 C17.97421875 96.15824219 17.9484375 95.31648438 17.921875 94.44921875 C16.99730095 74.21365491 13.25240472 54.38611673 9 34.625 C8.83273407 33.84194489 8.66546814 33.05888977 8.49313354 32.25210571 C6.62812692 23.57348054 4.56369996 15.06686646 1.83203125 6.61474609 C1.13362787 4.41993969 0.52622126 2.2410913 0 0 Z " fill="#2FA244" transform="translate(717,356)"/>
<path d="M0 0 C0.51046875 1.54107422 0.51046875 1.54107422 1.03125 3.11328125 C4.16620174 12.20893272 7.80237196 19.51388381 14 27 C14.46535156 27.61488281 14.93070313 28.22976563 15.41015625 28.86328125 C18.15577297 32.42110613 21.19659793 34.65322 25 37 C25.59683594 37.48984375 26.19367188 37.9796875 26.80859375 38.484375 C29.44392337 40.30702721 31.94258161 41.11852207 35 42.0625 C40.69639911 43.83550422 40.69639911 43.83550422 42.90917969 45.03442383 C45.19214997 46.0887381 46.82753959 46.30689455 49.328125 46.4140625 C50.12734375 46.45273437 50.9265625 46.49140625 51.75 46.53125 C52.9875 46.57765625 52.9875 46.57765625 54.25 46.625 C55.09046875 46.66367187 55.9309375 46.70234375 56.796875 46.7421875 C58.86423382 46.83615836 60.93208627 46.91915564 63 47 C63 47.66 63 48.32 63 49 C62.34 49 61.68 49 61 49 C61 49.99 61 50.98 61 52 C60.34 52 59.68 52 59 52 C58.7215625 53.051875 58.7215625 53.051875 58.4375 54.125 C56.48827039 58.02345922 53.65206981 60.63306834 50 63 C49.01 63 48.02 63 47 63 C47 63.66 47 64.32 47 65 C28.96268539 70.2719357 8.00604614 71.73175593 -9.625 63.8125 C-13.73656771 61.5019246 -16.55791721 58.5785361 -19.4765625 54.90625 C-21.0841373 52.79911768 -21.0841373 52.79911768 -23.6875 50.5 C-28.49448731 45.30325696 -30.28160784 41.38877071 -30.11694336 34.12988281 C-29.75020256 27.4504534 -29.04316408 21.50751517 -25 16 C-24.5771875 15.40058594 -24.154375 14.80117188 -23.71875 14.18359375 C-18.47673341 7.44177796 -8.94839551 0 0 0 Z " fill="#FC7472" transform="translate(71,450)"/>
<path d="M0 0 C1.7715837 3.23053498 1.77644479 6.41629657 1.0625 9.9375 C-1.48170762 13.38449097 -4.56568413 15.35940709 -8.125 17.625 C-17.32228599 23.63389351 -24.95565725 31.57206807 -28.9375 41.9375 C-29.34867519 44.51181424 -29.28486507 46.33226197 -28.9375 48.9375 C-23.08515349 51.48463527 -17.38413462 51.2334386 -11.125 51.1875 C-10.08279297 51.19523438 -9.04058594 51.20296875 -7.96679688 51.2109375 C-2.40172928 51.1969637 2.69436568 50.83616771 8.08276367 49.40893555 C10.24749667 48.89344666 12.34611304 48.67576323 14.5625 48.5 C20.26477132 47.92680808 25.35537957 46.09353607 30.60546875 43.8515625 C35.57316934 41.73221066 39.55563089 40.07367739 45.0625 40.9375 C48 42.375 48 42.375 50.0625 44.9375 C50.76975385 48.07126707 50.98735714 50.8473891 50.0625 53.9375 C35.84561171 67.92047239 4.73262286 70.48452401 -14 70.625 C-23.63799258 70.47162697 -32.55644041 69.54308176 -40.16015625 63.03515625 C-41.97533198 61.09325367 -43.47198633 59.15117381 -44.9375 56.9375 C-45.576875 55.98875 -46.21625 55.04 -46.875 54.0625 C-49.54013105 46.22387926 -48.04857745 39.56025574 -44.6875 32.16015625 C-37.34905826 18.64628475 -25.80693383 3.52049982 -10.765625 -1.8359375 C-6.98072026 -2.30500689 -3.35141509 -1.83787279 0 0 Z " fill="#191B19" transform="translate(432.9375,755.0625)"/>
<path d="M0 0 C9.92400076 4.27958075 17.64588067 14.61592572 24 23 C24.97646484 24.28777344 24.97646484 24.28777344 25.97265625 25.6015625 C30.41300605 31.69172379 34.26177935 37.73472513 35.5625 45.25 C34.44390408 50.71869116 29.86745537 53.16475479 25.5 56.125 C24.00853032 57.09655595 22.50827575 58.05474499 21 59 C20.27039063 59.51046875 19.54078125 60.0209375 18.7890625 60.546875 C14.94949529 62.54732178 11.10074543 63.28921174 6.875 64.125 C6.08351563 64.29386719 5.29203125 64.46273437 4.4765625 64.63671875 C-6.05771378 66.79454631 -16.46012924 67.14419644 -27.1875 67.0625 C-28.90163086 67.05573242 -28.90163086 67.05573242 -30.65039062 67.04882812 C-33.4336511 67.03718268 -36.21679572 67.02082997 -39 67 C-38.39072358 63.73967006 -37.29218914 61.76116176 -35.26171875 59.15625 C-34.69445068 58.41431396 -34.12718262 57.67237793 -33.54272461 56.90795898 C-32.93050049 56.11333252 -32.31827637 55.31870605 -31.6875 54.5 C-26.55272075 47.68866607 -21.80634521 40.76507725 -17.4375 33.4375 C-16.96207764 32.64214844 -16.48665527 31.84679687 -15.99682617 31.02734375 C-12.73708799 25.47392999 -9.82960531 19.78218528 -7 14 C-6.32826352 12.65292649 -5.65520468 11.30651111 -4.98046875 9.9609375 C-4.68076172 9.36152344 -4.38105469 8.76210938 -4.07226562 8.14453125 C-2.71484375 5.4296875 -1.35742188 2.71484375 0 0 Z " fill="#2FA244" transform="translate(706,563)"/>
<path d="M0 0 C2.73828125 1.65234375 2.73828125 1.65234375 5.3125 3.9375 C6.72208984 5.17306641 6.72208984 5.17306641 8.16015625 6.43359375 C9.09730469 7.28050781 10.03445313 8.12742187 11 9 C11.88558594 9.75410156 12.77117187 10.50820313 13.68359375 11.28515625 C22.89875078 19.23796301 32.35319609 29.72845461 35 42 C35.52777778 52.41666667 35.52777778 52.41666667 34 57 C33.34 57 32.68 57 32 57 C31.690625 57.8353125 31.690625 57.8353125 31.375 58.6875 C29.47866304 61.87679397 27.1725789 64.12457338 24 66 C21.14633122 66.67774577 18.41065655 66.65632195 15.48828125 66.59375 C14.67940964 66.59379028 13.87053802 66.59383057 13.03715515 66.59387207 C11.33011079 66.58852943 9.623066 66.57100032 7.91625977 66.54199219 C5.33726523 66.5003994 2.76091192 66.5009088 0.18164062 66.5078125 C-11.39781706 66.46291188 -21.01444871 65.01883231 -31.5625 60.02734375 C-34.44811784 58.81112982 -37.36331588 57.98091494 -40.375 57.125 C-48.51831227 54.69344891 -57.91901451 51.18346225 -63 44 C-63.35201103 40.53855822 -63.56935594 38.13871188 -62 35 C-61.34 35 -60.68 35 -60 35 C-60 34.34 -60 33.68 -60 33 C-56.78548731 31.39274365 -53.56387464 31.94251815 -50 32 C-50 32.66 -50 33.32 -50 34 C-48.948125 34.268125 -47.89625 34.53625 -46.8125 34.8125 C-43 36 -43 36 -40.734375 37.38671875 C-37.43859578 39.33122849 -34.01393768 40.67849602 -30.4375 42 C-29.38175781 42.39300293 -29.38175781 42.39300293 -28.3046875 42.79394531 C-23.13522823 44.67737353 -17.95231761 46.19519187 -12.58203125 47.41015625 C-10.42527784 47.90284878 -8.29972419 48.52959411 -6.1875 49.1875 C0.73614613 50.94402756 10.19530598 51.14794635 17 49 C16.40891582 37.76940067 7.24695233 29.51561308 -0.49707031 22.33935547 C-3.32186372 19.82200384 -6.29281298 17.52304357 -9.35546875 15.3046875 C-11 14 -11 14 -12 12 C-12.49055907 7.66672826 -12.47744439 5.67999656 -9.9375 2.0625 C-6.2358371 -0.53653991 -4.45444659 -0.45784462 0 0 Z " fill="#181B18" transform="translate(294,759)"/>
<path d="M0 0 C4.66974175 1.12804828 8.76585705 3.36714804 12.95800781 5.67651367 C29.01161795 14.44875012 49.31779212 12.89974188 67.08203125 12.94921875 C68.35614868 12.95698334 68.35614868 12.95698334 69.65600586 12.96490479 C78.54676746 13.00752938 87.33657908 12.82812365 96.17578125 11.80859375 C96.84896896 11.73110901 97.52215668 11.65362427 98.21574402 11.5737915 C105.33693849 10.65525973 112.61939783 8.89139483 119.03515625 5.6015625 C122.12422847 4.10245392 124.52935751 4.2859518 127.89453125 4.69921875 C131.58639667 7.29137958 132.72336886 8.74070939 133.51953125 13.19921875 C132.69872189 17.79575114 131.67858533 18.95392461 127.89453125 21.69921875 C94.5683738 37.79593165 43.78160141 36.05301089 9.43359375 24.5390625 C2.22767059 21.71659134 -5.7086789 18.29440352 -10.10546875 11.69921875 C-10.58156461 8.04915048 -10.32148511 6.13125148 -8.66796875 2.82421875 C-5.75480601 0.40842526 -3.78173893 -0.18187467 0 0 Z " fill="#181B19" transform="translate(237.10546875,470.30078125)"/>
<path d="M0 0 C0.33 0.99 0.66 1.98 1 3 C1.9590625 3.2165625 1.9590625 3.2165625 2.9375 3.4375 C5 4 5 4 6.25 5.625 C7.75752942 10.39884315 7.81763347 13.23798744 5.71484375 17.76953125 C-4.4567637 35.81892123 -4.4567637 35.81892123 -11 38 C-22 13.46735395 -22 13.46735395 -22 6 C-19.46270379 4.98749225 -16.92110512 3.98990427 -14.375 3 C-13.66214844 2.71382812 -12.94929687 2.42765625 -12.21484375 2.1328125 C-7.97992628 0.50100944 -4.61723525 -0.34956986 0 0 Z " fill="#2F9E43" transform="translate(538,719)"/>
<path d="M0 0 C7.62960689 0.48699618 13.14216787 3.72539891 19.0625 8.4375 C21.5179538 11.68503567 21.48835839 12.99159299 21 17 C19.61221154 19.34724714 18.3122315 21.27889952 16.625 23.375 C16.2125 23.92027344 15.8 24.46554687 15.375 25.02734375 C14.30894414 26.3994608 13.15983206 27.70618012 12 29 C11.34 29 10.68 29 10 29 C9.61328125 27.80503906 9.2265625 26.61007812 8.828125 25.37890625 C6.21905735 17.39230687 3.54240631 9.62979821 0 2 C0 1.34 0 0.68 0 0 Z " fill="#2F9D43" transform="translate(542,793)"/>
<path d="M0 0 C0.66 0.33 1.32 0.66 2 1 C-4.40649759 8.2923343 -11.08551453 15.19189123 -18 22 C-18.66 22.66 -19.32 23.32 -20 24 C-20.66 24 -21.32 24 -22 24 C-20.4608199 20.33247995 -18.24514548 18.01419427 -15.4296875 15.234375 C-14.08583984 13.90019531 -14.08583984 13.90019531 -12.71484375 12.5390625 C-11.77769531 11.61867187 -10.84054688 10.69828125 -9.875 9.75 C-8.92011363 8.80515144 -7.96568141 7.85984367 -7.01171875 6.9140625 C-4.67890913 4.60481662 -2.34155914 2.30036797 0 0 Z " fill="#4F504F" transform="translate(113,197)"/>
<path d="M0 0 C0.66 0.33 1.32 0.66 2 1 C-2.95 5.95 -7.9 10.9 -13 16 C-13.66 15.67 -14.32 15.34 -15 15 C-11.60955398 10.65599103 -7.97012263 7.08171023 -3.76953125 3.515625 C-1.91655093 1.96792368 -1.91655093 1.96792368 0 0 Z " fill="#4F504F" transform="translate(369,26)"/>
</svg>
